<svg xmlns="http://www.w3.org/2000/svg" width="1200" height="340" viewBox="0 0 1200 340" role="img" aria-labelledby="t d"><title id="t">Hệ màu Ant Design</title><desc id="d">Minh họa từ system palette đến product token và component theo Ant Design v5.</desc><style>text{font-family:-apple-system,BlinkMacSystemFont,'Segoe UI',Roboto,'Helvetica Neue',Arial,'Noto Sans',sans-serif}.h{font-size:30px;font-weight:600;fill:rgba(0,0,0,.88)}.sub{font-size:14px;fill:rgba(0,0,0,.45)}.label{font-size:12px;font-weight:500;fill:rgba(0,0,0,.65)}.title{font-size:16px;font-weight:600;fill:rgba(0,0,0,.88)}.body{font-size:13px;fill:rgba(0,0,0,.65)}.mono{font-family:ui-monospace,SFMono-Regular,Menlo,Monaco,Consolas,monospace;font-size:12px;fill:rgba(0,0,0,.65)}</style><rect width="1200" height="340" fill="#f5f5f5"/><text class="h" x="48" y="52">Hệ màu Ant Design</text><text class="sub" x="48" y="82">Từ palette hệ thống đến token sản phẩm và component có thể tái sử dụng.</text><rect x="48" y="116" width="1104" height="176" rx="8" fill="#fff" stroke="#f0f0f0"/><rect x="80" y="148" width="164" height="112" rx="6" fill="#e6f4ff"/><circle cx="118" cy="188" r="20" fill="#1677ff"/><circle cx="154" cy="212" r="20" fill="#4096ff"/><circle cx="190" cy="176" r="20" fill="#0958d9"/><text class="label" x="80" y="244">System palette</text><path d="M 284 204 H 374" stroke="#d9d9d9" stroke-width="2"/><path d="M 364 197 L 374 204 L 364 211" fill="none" stroke="#1677ff" stroke-width="2"/><text class="title" x="414" y="166">Product token</text><text class="mono" x="414" y="194">colorPrimary</text><text class="mono" x="414" y="216">#1677FF</text><text class="body" x="414" y="246">Vai trò thay vì mã màu rời</text><path d="M 640 204 H 730" stroke="#d9d9d9" stroke-width="2"/><path d="M 720 197 L 730 204 L 720 211" fill="none" stroke="#1677ff" stroke-width="2"/><text class="title" x="770" y="166">Component</text><rect x="770" y="186" width="140" height="32" rx="6" fill="#1677ff"/><text x="807" y="207" font-family="-apple-system,BlinkMacSystemFont,'Segoe UI',sans-serif" font-size="14" font-weight="500" fill="#fff">Lưu thay đổi</text><text class="body" x="770" y="246">Button dùng token semantic</text></svg>